<?xml version="1.0" standalone="no"?>
<!DOCTYPE svg PUBLIC "-//W3C//DTD SVG 20010904//EN"
 "http://www.w3.org/TR/2001/REC-SVG-20010904/DTD/svg10.dtd">
<svg version="1.0" xmlns="http://www.w3.org/2000/svg"
 width="625.000000pt" height="672.000000pt" viewBox="0 0 625.000000 672.000000"
 preserveAspectRatio="xMidYMid meet">

<g transform="translate(0.000000,672.000000) scale(0.100000,-0.100000)"
fill="#000000" stroke="none">
<path d="M545 1233 c-261 -41 -459 -213 -526 -458 -28 -103 -24 -256 10 -355
102 -299 410 -472 723 -405 101 21 221 87 299 166 88 87 152 214 174 344 14
80 14 99 0 176 -28 163 -84 270 -194 371 -65 61 -188 127 -272 147 -56 13
-173 21 -214 14z"/>
</g>
</svg>
