<?xml version="1.0" standalone="no"?>
<!DOCTYPE svg PUBLIC "-//W3C//DTD SVG 20010904//EN"
 "http://www.w3.org/TR/2001/REC-SVG-20010904/DTD/svg10.dtd">
<svg version="1.0" xmlns="http://www.w3.org/2000/svg"
 width="480.000000pt" height="480.000000pt" viewBox="0 0 480.000000 480.000000"
 preserveAspectRatio="xMidYMid meet">

<g transform="translate(0.000000,480.000000) scale(0.100000,-0.100000)"
fill="#ffffff" stroke="none">
<path d="M1641 4694 c-934 -70 -1402 -109 -1437 -119 -75 -22 -133 -70 -169
-140 l-30 -59 -3 -1533 c-3 -1682 -5 -1598 57 -1721 16 -31 46 -82 68 -113 71
-103 668 -874 707 -912 55 -56 128 -86 222 -93 66 -5 845 38 1749 96 88 6 426
26 750 45 325 20 638 40 696 45 185 16 274 68 318 184 l21 57 0 1723 0 1723
-23 34 c-12 19 -50 55 -82 81 -139 110 -1016 721 -1080 752 -86 42 -160 56
-284 55 -53 -1 -719 -48 -1480 -105z m1589 -174 c91 -17 154 -54 413 -241 274
-198 297 -216 297 -236 0 -7 -10 -15 -22 -17 -13 -3 -525 -35 -1138 -71 -613
-37 -1254 -75 -1423 -85 -327 -20 -385 -18 -461 19 -53 26 -468 355 -480 381
-10 23 6 48 40 61 13 4 152 17 311 29 158 11 374 27 478 35 105 8 323 24 485
36 162 12 520 38 795 59 552 41 628 45 705 30z m992 -837 c11 -10 27 -31 37
-48 15 -27 16 -154 16 -1500 0 -1417 -1 -1471 -19 -1508 -26 -53 -66 -77 -144
-88 -79 -12 -2818 -170 -2943 -170 -128 -1 -185 31 -208 116 -16 57 -15 2879
0 2941 14 53 53 90 106 98 21 3 427 28 903 56 476 28 1151 68 1500 90 349 21
657 37 684 35 28 -3 57 -12 68 -22z"/>
<path d="M3404 3171 c-233 -15 -275 -20 -305 -37 -47 -28 -79 -78 -79 -125 0
-22 1 -39 3 -39 1 -1 53 -7 115 -14 62 -8 115 -16 118 -18 2 -3 3 -291 2 -640
l-3 -635 -460 705 c-253 388 -467 714 -475 724 -14 17 -27 17 -369 -7 -194
-13 -363 -27 -375 -31 -64 -20 -115 -93 -116 -166 0 -41 0 -41 158 -54 l82 -6
0 -919 0 -918 -42 -11 c-86 -23 -143 -40 -154 -48 -24 -17 -44 -59 -44 -94 l0
-38 68 0 c37 1 200 9 362 19 315 20 348 26 402 78 32 31 56 92 40 102 -6 3
-72 20 -146 36 l-136 30 0 694 c0 382 2 692 4 690 2 -2 209 -328 461 -724 251
-396 482 -748 511 -782 74 -84 125 -108 229 -107 87 0 158 18 267 66 l68 31 0
1028 0 1028 58 11 c105 21 131 30 147 52 19 28 29 81 21 113 -6 24 -10 25 -74
24 -37 -1 -189 -9 -338 -18z"/>
</g>
</svg>
